<svg width="24" height="24" viewBox="0 0 24 24" fill="none" xmlns="http://www.w3.org/2000/svg">
<path d="M12 0.75C5.787 0.75 0.75 5.787 0.75 12C0.75 18.213 5.787 23.25 12 23.25C18.213 23.25 23.25 18.213 23.25 12C23.25 5.787 18.213 0.75 12 0.75ZM12.75 13.2919V14.25H11.25V13.3958L10.4753 13.875L9.75 12.5317L10.5064 12.0637C10.5056 12.042 10.5 12.0221 10.5 12C10.5 11.4461 10.8038 10.968 11.25 10.7081V2.25H12.75V10.6759L17.2762 7.875L18 9.21975L13.4996 12.0041C13.4984 12.2656 13.4286 12.5222 13.297 12.7482C13.1654 12.9742 12.9768 13.1617 12.75 13.2919Z" fill="black"/>
<path d="M12 13.125C12.6213 13.125 13.125 12.6213 13.125 12C13.125 11.3787 12.6213 10.875 12 10.875C11.3787 10.875 10.875 11.3787 10.875 12C10.875 12.6213 11.3787 13.125 12 13.125Z" fill="black"/>
</svg>
