<svg width="72" height="72" viewBox="0 0 72 72" fill="none" xmlns="http://www.w3.org/2000/svg">
<g id="quotation-marks-svgrepo-com 1" clip-path="url(#clip0_4177_666)">
<g id="Group">
<path id="Vector" d="M15.1247 30.2909C15.9909 24.8459 22.7972 19.0297 28.1184 18.9059C28.4897 18.9059 28.8609 18.7822 29.1084 18.5347C29.3559 18.4109 29.6034 18.2872 29.7272 17.9159C31.5834 14.451 30.5934 11.7285 27.4997 9.50096C23.9109 6.90222 18.2184 9.50096 15.3722 11.8522C8.1947 17.7922 0.89346 28.0632 1.26471 37.8397C0.027212 44.3986 0.274711 51.4521 2.13096 57.2684C3.36846 60.9809 6.9572 62.8371 10.6697 63.0846C14.3822 63.3323 22.0547 64.4458 25.3959 62.2186C28.7372 59.9909 28.9847 55.6596 29.3559 51.9473C29.7271 47.8636 30.8409 40.1909 27.3759 36.9734C23.9109 33.8797 14.0109 37.2209 15.1247 30.2909Z" fill="#FFF8EB"/>
<path id="Vector_2" d="M55.9616 30.2909C56.8279 24.8459 63.6339 19.0297 68.9553 18.9059C69.3266 18.9059 69.6978 18.7822 69.9453 18.5347C70.193 18.4109 70.4403 18.2872 70.5643 17.9159C72.4205 14.451 71.4305 11.7285 68.3368 9.50096C64.748 6.90222 59.0556 9.50096 56.2091 11.8522C49.0316 17.7922 41.7304 28.0634 42.1016 37.8397C40.8641 44.3986 41.1116 51.4521 42.9677 57.2684C44.2052 60.9809 47.7939 62.8371 51.5066 63.0846C55.2191 63.3323 62.8916 64.4458 66.2328 62.2186C69.5739 59.9909 69.8216 55.6596 70.1928 51.9473C70.5641 47.8636 71.6778 40.1909 68.2128 36.9734C64.7478 33.8797 54.7241 37.2209 55.9616 30.2909Z" fill="#FFF8EB"/>
</g>
</g>
<defs>
<clipPath id="clip0_4177_666">
<rect width="71" height="71" fill="white" transform="translate(0.5 0.5)"/>
</clipPath>
</defs>
</svg>
