<svg width="420" height="1264" viewBox="0 0 420 1264" fill="none" xmlns="http://www.w3.org/2000/svg">
<g clip-path="url(#clip0_2149_493)">
<g clip-path="url(#clip1_2149_493)">
<path d="M60.0037 205.013L78.9637 304.342L94.7792 268.023L71.4688 218.114L71.5046 218.088L112.197 255.178L148.806 254.08L60.0037 205.013Z" fill="#C9E165" stroke="#C9E165" stroke-width="0.045324"/>
</g>
<path opacity="0.45" d="M217.977 1266.79C505.5 561 -38.6187 791.946 101.78 946C242.178 1100.05 341.07 535.793 101.78 259.65" stroke="#C9E165" stroke-width="2" stroke-dasharray="22 22"/>
<path opacity="0.3" d="M414.007 78C-401 660.5 350.483 751.001 380.5 511C410.517 270.999 -235.169 866 170.218 1186" stroke="#FE6150" stroke-width="2" stroke-dasharray="22 22"/>
<path d="M116.45 1184.32L153.151 1183.22L193.85 1220.31L170.536 1170.4L186.384 1134L205.367 1233.45L116.45 1184.32Z" fill="#FE6150"/>
</g>
<defs>
<clipPath id="clip0_2149_493">
<rect width="420" height="1264" fill="white"/>
</clipPath>
<clipPath id="clip1_2149_493">
<rect width="360" height="1264" fill="white"/>
</clipPath>
</defs>
</svg>
