<svg width="66" height="19" viewBox="0 0 66 19" fill="none" xmlns="http://www.w3.org/2000/svg">
<path d="M0 9.11499C0 12.5851 2.64224 14.9268 6.34567 14.9268C6.888 14.9268 7.52023 14.8844 8.21987 14.7988V11.733C7.67853 11.7966 7.15868 11.8399 6.75218 11.8399C4.67473 11.8399 3.56761 10.7114 3.56761 9.11499C3.56761 7.51856 4.67473 6.36891 6.75218 6.36891C7.15868 6.36891 7.67755 6.41128 8.21987 6.47485V3.43029C7.52023 3.34554 6.888 3.30225 6.34567 3.30225C2.64224 3.30225 0 5.64393 0 9.11407V9.11499Z" fill="#0E0E0E"/>
<path d="M14.9281 11.8809C13.2796 11.8809 12.0601 10.7949 12.0601 9.09156C12.0601 7.38827 13.2796 6.3031 14.9281 6.3031C16.5541 6.3031 17.7511 7.38919 17.7511 9.09156C17.7511 10.7949 16.5541 11.8809 14.9281 11.8809ZM17.9094 4.47268C17.0964 3.66387 15.787 3.23828 14.4541 3.23828C11.2246 3.23828 8.49249 5.62234 8.49249 9.09248C8.49249 12.5626 11.2246 14.9476 14.4541 14.9476C15.787 14.9476 17.0964 14.522 17.9094 13.7132L17.9319 14.7348H21.0939V3.452H17.9319L17.9094 4.47361V4.47268Z" fill="#0E0E0E"/>
<path d="M28.613 11.8828C26.987 11.8828 25.79 10.7967 25.79 9.0934C25.79 7.39011 26.987 6.30494 28.613 6.30494C30.2614 6.30494 31.4809 7.39103 31.4809 9.0934C31.4809 10.7967 30.2624 11.8828 28.613 11.8828ZM29.0869 3.2392C27.755 3.2392 26.4446 3.6648 25.6316 4.47361L25.6092 3.452H22.4481V18.9926H26.0157V16.8849C26.0157 15.948 25.9932 14.9264 25.9483 13.9896C26.7613 14.6289 27.9123 14.9476 29.0869 14.9476C32.3164 14.9476 35.0486 12.5635 35.0486 9.09248C35.0486 5.62234 32.3164 3.23828 29.0869 3.23828V3.2392Z" fill="#0E0E0E"/>
<path d="M35.8831 14.7315H39.4507V3.44873H35.8831V14.7315Z" fill="#0E0E0E"/>
<path d="M63.8522 8.87175C63.0451 10.131 62.4676 11.4741 62.1842 12.9241C62.1197 13.2566 62.0796 13.5938 62.0298 13.9291C62.0083 14.0728 61.9125 14.1824 61.766 14.187C61.4865 14.1953 61.208 14.1898 60.9168 14.1898C60.864 13.3331 60.8699 12.493 60.9627 11.6538C60.9666 11.6188 60.9803 11.581 60.9989 11.5497C61.681 10.3899 62.6288 9.47513 63.8415 8.80358C63.8551 8.79621 63.8688 8.79068 63.905 8.77502C63.8815 8.81924 63.8688 8.84687 63.8522 8.87267V8.87175ZM57.4274 14.1843V8.47931C58.4524 10.1421 58.9351 12.0443 58.8873 14.1843H57.4274ZM57.7576 7.70091C57.9414 6.65074 58.2345 5.63098 58.7094 4.6628C58.7876 4.50436 58.8736 4.34959 58.9566 4.19391C58.9615 4.1847 58.9732 4.17917 58.9732 4.1801C58.9293 4.62135 58.8765 5.06721 58.8423 5.51491C58.7876 6.23712 58.8022 6.95842 58.8658 7.67972C58.8912 7.9616 58.9263 8.24257 58.9556 8.52353C58.9586 8.54841 58.9605 8.57696 58.9498 8.59815C58.8257 8.84595 58.6996 9.09283 58.5667 9.35261C58.5462 9.31484 58.5316 9.2872 58.5169 9.25957C58.2853 8.83674 58.0576 8.41299 57.8182 7.99385C57.7625 7.8962 57.7391 7.81237 57.7576 7.70183V7.70091ZM65.0189 7.87133C64.929 7.76447 64.7922 7.7396 64.6329 7.80408C63.3089 8.33561 62.1705 9.10204 61.2676 10.1679C61.251 10.1881 61.2422 10.2148 61.2305 10.2388L61.2021 10.2139C61.2031 10.2029 61.2041 10.1918 61.207 10.1817C61.3165 9.78649 61.4249 9.39038 61.5373 8.99518C61.5901 8.8091 61.506 8.64974 61.3253 8.61105C61.1611 8.57604 61.0233 8.66908 60.9627 8.85516C60.4243 10.4866 60.2308 12.1586 60.3032 13.8609C60.308 13.9678 60.3159 14.0747 60.3227 14.1852H59.4716C59.4716 14.152 59.4706 14.1262 59.4716 14.1005C59.5165 12.7785 59.3367 11.487 58.9058 10.2268C58.8902 10.1798 58.899 10.1163 58.9175 10.0684C59.6397 8.2048 60.8445 6.67377 62.4988 5.45411C62.5242 5.43476 62.5526 5.42003 62.6053 5.38686C62.5643 5.45687 62.5399 5.49832 62.5145 5.53978C62.0591 6.28963 61.6575 7.06436 61.3272 7.87133C61.3008 7.93581 61.2774 8.00766 61.2793 8.07491C61.2852 8.2048 61.3956 8.30337 61.5285 8.32087C61.6829 8.34021 61.7972 8.27113 61.8617 8.11268C62.1861 7.31953 62.5741 6.55494 63.0285 5.82166C63.2845 5.40713 63.561 5.00364 63.8307 4.59647C63.9538 4.40947 63.8893 4.19115 63.6792 4.15246C63.5932 4.1368 63.4809 4.16259 63.4027 4.20681C61.8353 5.07734 60.5426 6.22146 59.539 7.65392C59.5204 7.68064 59.499 7.70459 59.4628 7.75065C59.4521 7.60602 59.4433 7.48811 59.4354 7.36928C59.3504 6.15145 59.4247 4.94284 59.6709 3.74437C59.7335 3.4413 59.8136 3.14191 59.8869 2.8416C59.9318 2.66012 59.8527 2.51089 59.6827 2.47036C59.538 2.43627 59.4335 2.49523 59.3455 2.60209C58.4954 3.6283 57.9199 4.78348 57.5466 6.0317C57.4616 6.31451 57.3893 6.601 57.316 6.88749C56.8792 4.51449 55.1535 3.17876 52.5934 3.17876C50.9898 3.17876 49.7479 3.73239 49.0472 4.60569C48.3241 3.73239 47.0822 3.17876 45.4796 3.17876C42.5208 3.17876 40.67 4.98798 40.67 8.13939V14.7388H44.2377V8.01135C44.2377 6.92526 44.8474 6.30806 45.7503 6.30806C46.6766 6.30806 47.2629 6.92526 47.2629 8.01135V14.7388H50.8315V8.01135C50.8315 6.92526 51.4188 6.30806 52.3442 6.30806C53.2471 6.30806 53.8568 6.92526 53.8568 8.01135V14.7388H56.93C56.93 14.7434 56.931 14.7481 56.93 14.7536C58.5208 14.7536 60.1116 14.7536 61.7034 14.7527C62.1901 14.7527 62.5711 14.4358 62.6161 13.9954C62.6904 13.2787 62.8369 12.5759 63.0587 11.8859C63.4828 10.5658 64.1522 9.36182 65.0023 8.24441C65.1059 8.109 65.1088 7.98279 65.017 7.87501L65.0189 7.87133Z" fill="#0E0E0E"/>
<path d="M35.8831 1.72448H39.4507V0H35.8831V1.72448Z" fill="#C9E165"/>
<path d="M46.4282 17.4175H46.7438V18.2567C46.7438 18.5948 47.0008 18.7367 47.2334 18.7367C47.3282 18.7367 47.4298 18.7173 47.5705 18.6446L47.4621 18.4152C47.4621 18.4152 47.3673 18.4778 47.2754 18.4778C47.1171 18.4778 47.0399 18.3912 47.0399 18.2429V17.4175H47.5461V17.166H47.0399V16.699H46.7438V17.166H46.4282V17.4175ZM50.1717 17.1264C49.6822 17.1264 49.3597 17.4848 49.3597 17.9315C49.3597 18.3857 49.7144 18.7367 50.2069 18.7367C50.6359 18.7367 50.8811 18.4354 50.8811 18.4354L50.6945 18.253C50.6945 18.253 50.5264 18.4787 50.2059 18.4787C49.9001 18.4787 49.6646 18.2632 49.647 18.032H50.9583C50.9622 17.9951 50.9623 17.9721 50.9623 17.9426C50.9623 17.4488 50.6241 17.1273 50.1707 17.1273L50.1717 17.1264ZM49.6548 17.7989C49.6753 17.6404 49.8199 17.3844 50.1717 17.3844C50.4981 17.3844 50.6642 17.6266 50.674 17.7989H49.6548ZM54.0813 18.2595C54.0813 18.2595 53.923 18.4787 53.6064 18.4787C53.2791 18.4787 53.0641 18.2337 53.0641 17.9315C53.0641 17.6303 53.2781 17.3844 53.6064 17.3844C53.8947 17.3844 54.053 17.5704 54.053 17.5704L54.2533 17.4009C54.2533 17.4009 54.0208 17.1255 53.6064 17.1255C53.1276 17.1255 52.769 17.4838 52.769 17.9306C52.769 18.382 53.1276 18.7357 53.6064 18.7357C54.0354 18.7357 54.2699 18.441 54.2699 18.441L54.0804 18.2586L54.0813 18.2595ZM56.9776 17.1264C56.6962 17.1264 56.5487 17.2849 56.4998 17.3521V16.1914H56.2037V18.6971H56.4998V17.6432C56.4998 17.6432 56.6405 17.3844 56.9034 17.3844C57.1213 17.3844 57.2942 17.4967 57.2942 17.7593V18.6971H57.5893V17.7123C57.5893 17.3346 57.3011 17.1264 56.9776 17.1264Z" fill="#C9E165"/>
</svg>
