<svg width="24" height="24" viewBox="0 0 24 24" fill="none" xmlns="http://www.w3.org/2000/svg">
<path d="M12 2C6.47733 2 2 6.47733 2 12C2 17.5227 6.47733 22 12 22C17.5227 22 22 17.5227 22 12C22 6.47733 17.5227 2 12 2ZM12.6667 13.1483V14H11.3333V13.2407L10.6447 13.6667L10 12.4727L10.6723 12.0567C10.6717 12.0373 10.6667 12.0197 10.6667 12C10.6667 11.5077 10.9367 11.0827 11.3333 10.8517V3.33333H12.6667V10.823L16.69 8.33333L17.3333 9.52867L13.333 12.0037C13.332 12.2361 13.2698 12.4642 13.1529 12.6651C13.036 12.866 12.8683 13.0326 12.6667 13.1483Z" fill="black"/>
<path d="M12 13.125C12.6213 13.125 13.125 12.6213 13.125 12C13.125 11.3787 12.6213 10.875 12 10.875C11.3787 10.875 10.875 11.3787 10.875 12C10.875 12.6213 11.3787 13.125 12 13.125Z" fill="black"/>
</svg>
