<svg width="24" height="24" viewBox="0 0 24 24" fill="none" xmlns="http://www.w3.org/2000/svg">
<path fill-rule="evenodd" clip-rule="evenodd" d="M19.1256 2.34444C18.0311 2 17.0311 2 15.0311 2H8.96889C6.96889 2 5.96889 2 4.87556 2.34444C4.29494 2.55705 3.76762 2.89362 3.33031 3.33074C2.89299 3.76786 2.55619 4.29503 2.34333 4.87556C2 5.95556 2 6.96222 2 8.96889V15.0278C2 17.0311 2 18.0311 2.34444 19.1256C2.55652 19.7063 2.89292 20.2338 3.33013 20.671C3.76733 21.1082 4.29477 21.4446 4.87556 21.6567C5.95556 22 6.96222 22 8.96889 22H15.0311C17.0311 22 18.0311 22 19.1256 21.65C19.7063 21.4379 20.2338 21.1015 20.671 20.6643C21.1082 20.2271 21.4446 19.6997 21.6567 19.1189C22 18.0378 22 17.0311 22 15.0256V8.97222C22 6.96889 22 5.96889 21.6556 4.87556C21.4437 4.29467 21.1076 3.76709 20.6706 3.32969C20.2335 2.8923 19.7063 2.55678 19.1256 2.34444ZM15.8333 9.43667C15.7966 9.47382 15.7528 9.50332 15.7045 9.52345C15.6563 9.54358 15.6045 9.55394 15.5522 9.55394C15.4999 9.55394 15.4482 9.54358 15.3999 9.52345C15.3517 9.50332 15.3079 9.47382 15.2711 9.43667L15.2778 9.44222C14.5232 8.78609 13.5588 8.42154 12.5589 8.41444C11.7344 8.41444 10.9122 8.71444 10.9122 9.47C10.9122 10.1911 11.6656 10.4667 12.5844 10.8033L12.8122 10.8867C14.5933 11.5022 16.0622 12.2589 16.0622 14.0522C16.0622 15.9989 14.5867 17.3333 12.1656 17.4967L11.9467 18.5556C11.9281 18.6493 11.8774 18.7336 11.8034 18.794C11.7294 18.8544 11.6367 18.8872 11.5411 18.8867L10.0256 18.8744C9.96418 18.8734 9.9038 18.8587 9.84877 18.8315C9.79375 18.8043 9.74547 18.7652 9.7074 18.717C9.66934 18.6689 9.64245 18.6129 9.62868 18.553C9.61491 18.4932 9.6146 18.4311 9.62778 18.3711L9.86 17.2556C8.94336 17.0141 8.10449 16.5403 7.42444 15.88C7.3848 15.8407 7.35334 15.794 7.33186 15.7425C7.31039 15.691 7.29933 15.6358 7.29933 15.58C7.29933 15.5242 7.31039 15.469 7.33186 15.4175C7.35334 15.366 7.3848 15.3193 7.42444 15.28L8.26889 14.4356C8.34513 14.3595 8.44842 14.3168 8.55611 14.3168C8.6638 14.3168 8.7671 14.3595 8.84333 14.4356C9.65556 15.2522 10.7056 15.5867 11.7056 15.5867C12.8056 15.5867 13.55 15.1311 13.55 14.3522C13.55 13.6689 12.9389 13.4389 11.7811 13.0044L11.3922 12.8589C9.90333 12.3244 8.49333 11.5456 8.49333 9.73333C8.49333 7.64 10.2 6.61778 12.2122 6.51444L12.4311 5.45889C12.4493 5.3659 12.499 5.28204 12.5719 5.22151C12.6448 5.16097 12.7364 5.12747 12.8311 5.12667H14.3422C14.6022 5.12667 14.7967 5.37111 14.7422 5.63L14.4967 6.81778C15.2684 7.07657 15.9819 7.48427 16.5967 8.01778C16.7711 8.18667 16.7811 8.46778 16.6156 8.62444L15.8333 9.43667Z" fill="black"/>
</svg>
