<svg width="374" height="142" viewBox="0 0 374 142" fill="none" xmlns="http://www.w3.org/2000/svg">
<path d="M109.833 74.653C112.658 74.653 114.918 72.3947 114.918 69.572C114.918 66.8117 112.658 64.5534 109.833 64.5534C107.351 64.5534 98.1254 64.1215 96.399 64.5534C91.4395 64.7417 87.108 67.439 83.9691 71.5167C75.2414 82.8956 78.8987 102.683 91.8164 107.524C89.2862 104.274 90.3281 99.3371 94.139 97.4872C88.4952 93.7283 87.6781 83.2526 92.0045 77.6016C93.3855 75.7826 95.1431 74.6533 97.0267 74.6533H109.833L109.833 74.653ZM109.896 25.7078C112.658 25.7078 114.918 23.4494 114.918 20.6265C114.918 17.8664 112.657 15.5493 109.896 15.5493H86.1973C81.9924 16.2497 78.9668 17.7292 78.9668 20.6265V33.2984C80.2224 31.9181 82.2742 30.967 84.283 30.967H89.3052V25.7081H109.896L109.896 25.7078ZM89.2497 48.6254V61.1607C89.2497 62.5722 88.5488 63.2726 87.1678 63.2726C80.7678 63.2726 78.9754 59.0598 78.9754 52.6187V45.855H79.0248L78.9671 37.6264C78.9457 34.8661 81.4583 32.6081 84.2833 32.6081H100.171C102.933 32.6081 105.193 34.8661 105.193 37.6264C105.193 40.3867 102.931 42.6447 100.171 42.6447H89.3052L89.2497 48.6254ZM128.057 59.4361H118.86C112.582 59.4361 109.381 56.582 109.234 50.863L109.015 39.1323C109.015 33.1204 112.394 30.1094 119.132 30.0887H129.155C135.108 30.0887 138.08 33.288 138.08 39.6762C138.08 44.339 135.077 47.298 129.061 48.5631C123.056 49.8281 119.969 50.884 119.812 51.7202C119.403 53.8549 119.981 55.9128 121.768 55.9128H126.058C127.575 55.9128 128.611 55.1393 129.187 53.5814C129.762 52.0341 131.415 51.2604 134.156 51.2604C136.322 51.2604 137.4 51.7205 137.4 52.6407C137.505 52.7764 137.557 53.1424 137.557 53.7067C137.536 57.4291 134.366 59.3319 128.057 59.4361ZM120.482 47.0574C121.936 47.0574 123.694 46.5031 125.755 45.3741C129.165 43.5308 128.518 41.2947 128.486 38.2124C128.486 35.1073 127.157 33.5494 124.5 33.5494C121.109 33.5494 119.415 35.1278 119.415 38.2751V44.4854C119.415 46.2002 119.771 47.0574 120.482 47.0574H120.482ZM143.751 15.6081H144.389C149.17 15.6081 151.576 18.3473 151.597 23.8469V57.5963C151.597 59.0078 150.897 59.7079 149.516 59.7079C143.116 59.7079 141.323 55.4951 141.323 49.054V18.5146C141.323 16.5699 142.139 15.6081 143.751 15.6081ZM159.842 27.1819C156.515 27.1819 154.841 25.5509 154.841 22.2785C154.841 19.0166 156.515 17.3856 159.842 17.3856C163.169 17.3856 164.843 19.0166 164.843 22.2785C164.843 25.5509 163.169 27.1819 159.842 27.1819ZM156.19 59.5618C155.375 59.5407 154.966 59.1751 154.966 58.4533L154.841 38.118C154.883 32.8695 156.567 30.2244 159.905 30.1825L162.604 30.1198C164.089 30.1198 164.843 30.8936 164.843 32.42V56.4667C164.843 58.5055 163.64 59.53 161.254 59.53L156.19 59.5615V59.5618ZM187.15 51.1033L187.003 38.4839C187.003 35.4206 185.538 33.8942 182.619 33.8942C179.669 33.8942 178.204 35.4833 178.204 38.6722V51.1033C178.245 51.7665 178.252 52.5326 178.252 53.3485L178.252 73.7447C178.252 75.1535 177.571 75.8566 176.23 75.8566C173.546 75.8566 171.553 75.0394 170.242 73.4099C168.285 70.9752 168.285 67.4058 168.271 64.2587L168.087 38.9437C168.048 33.626 171.19 30.6887 177.177 30.1335L186.02 30.0361C193.354 30.0361 197.026 32.8695 197.026 38.5466V51.2916C197.026 56.6758 193.553 59.3732 186.605 59.3732C184.726 59.3732 180.946 60.0816 180.396 58.1524C179.235 54.0804 181.489 54.114 182.92 55.194C184.716 56.5481 187.181 53.8395 187.149 51.103L187.15 51.1033ZM218.617 59.4361H209.42C203.143 59.4361 199.941 56.582 199.795 50.863L199.575 39.1323C199.575 33.1204 202.955 30.1094 209.693 30.0887H219.716C225.669 30.0887 228.64 33.288 228.64 39.6762C228.64 44.339 225.638 47.298 219.622 48.5631C213.616 49.8281 210.529 50.884 210.373 51.7202C209.964 53.8549 210.542 55.9128 212.329 55.9128H216.619C218.136 55.9128 219.172 55.1393 219.748 53.5814C220.323 52.0341 221.976 51.2604 224.717 51.2604C226.883 51.2604 227.961 51.7205 227.961 52.6407C228.066 52.7764 228.118 53.1424 228.118 53.7067C228.097 57.4291 224.927 59.3319 218.618 59.4361H218.617ZM211.042 47.0574C212.497 47.0574 214.254 46.5031 216.315 45.3741C219.726 43.5308 219.078 41.2947 219.046 38.2124C219.046 35.1073 217.718 33.5494 215.06 33.5494C211.67 33.5494 209.975 35.1278 209.975 38.2751V44.4854C209.975 46.2002 210.331 47.0574 211.042 47.0574H211.042ZM332.8 108.695H325.748C319.933 108.695 316.969 106.04 317.012 100.728L317.243 66.9163C317.243 65.5048 317.944 64.8044 319.325 64.8044C325.725 64.8044 327.517 69.0172 327.517 75.4583V79.2534H331.91C333.974 79.2534 334.369 80.4219 334.369 82.1076C334.369 85.3509 331.353 83.9911 328.269 84.6172C327.568 84.7633 327.223 85.6627 327.223 87.3145V100.634C327.223 103.112 328.28 104.346 330.383 104.346C332.484 104.346 335.127 103.966 335.164 106.458C335.183 107.758 334.967 108.695 332.8 108.695H332.8ZM162.523 108.601C160.295 108.601 158.642 107.19 157.554 104.377L149.947 83.6967C149.23 81.7556 149.458 80.1273 151.726 79.3161C152.814 78.9294 153.871 78.741 154.886 78.741C157.606 78.741 159.332 79.8285 160.064 82.0134L165.495 96.7761L169.69 80.4555C169.941 79.5983 170.632 79.1697 171.772 79.1697C173.248 79.1697 173.98 79.7551 173.98 80.9471C173.98 83.2509 168.9 101.777 167.849 105.234C167.179 107.482 165.401 108.601 162.524 108.601L162.523 108.601ZM211.07 64.8047H211.708C216.49 64.8047 218.896 67.5436 218.917 73.0431V106.792C218.917 108.204 218.216 108.904 216.835 108.904C210.435 108.904 208.643 104.691 208.643 98.2503V67.7108C208.643 65.7662 209.459 64.8044 211.07 64.8044L211.07 64.8047ZM240.081 108.821H231.962C225.245 108.821 221.876 105.946 221.876 100.206L221.813 89.6147C221.813 82.9339 225.14 79.5989 231.784 79.5989H240.081C247.039 79.5989 250.512 81.8572 250.512 86.3634C250.512 87.7541 249.612 88.4545 247.813 88.4753L244.067 88.5383C241.943 88.5383 240.792 87.7437 240.625 86.1543C240.447 84.5548 239.024 83.7603 236.346 83.7603C233.155 83.7603 231.564 85.8199 231.564 89.9498V100.426C231.564 102.956 232.998 104.221 235.854 104.221C238.449 104.2 240.332 103.322 241.493 101.586C243.49 98.5494 245.553 99.1224 248.514 99.2341C249.843 99.2756 250.512 100.029 250.512 101.492C250.471 103.521 249.707 105.183 248.242 106.49C246.547 108.037 243.827 108.822 240.081 108.822L240.081 108.821ZM354.788 108.633H345.591C339.314 108.633 336.112 105.779 335.965 100.06L335.746 88.3289C335.746 82.317 339.125 79.306 345.863 79.2852H355.886C361.84 79.2852 364.811 82.4842 364.811 88.8725C364.811 93.5355 361.808 96.4942 355.792 97.7596C349.787 99.0247 346.7 100.081 346.543 100.917C346.134 103.051 346.713 105.109 348.5 105.109H352.789C354.306 105.109 355.343 104.336 355.918 102.778C356.493 101.231 358.146 100.457 360.888 100.457C363.053 100.457 364.131 100.917 364.131 101.837C364.236 101.973 364.288 102.339 364.288 102.903C364.267 106.625 361.097 108.528 354.788 108.633ZM347.213 96.254C348.667 96.254 350.425 95.6997 352.486 94.5704C355.897 92.7267 355.249 90.4913 355.217 87.4087C355.217 84.3035 353.888 82.7459 351.231 82.7459C347.841 82.7459 346.146 84.3243 346.146 87.4717V93.682C346.146 95.3964 346.502 96.254 347.213 96.254H347.213ZM307.345 108.904C305.117 108.904 303.997 107.891 303.997 105.873C304.003 104.317 304.195 87.1841 304.07 87.1841C304.088 83.5972 295.449 82.0776 295.449 88.0782L295.596 105.873C295.596 107.891 294.476 108.904 292.227 108.904C287.55 108.904 285.196 105.977 285.175 100.112V82.3497C285.175 80.3111 286.805 78.9365 289.24 79.2864L294.467 80.0376C297.751 80.5173 311.909 76.2611 313.961 87.1838H313.944C314.058 87.889 314.114 88.6657 314.114 89.5203V101.032C314.114 106.28 311.855 108.904 307.345 108.904L307.345 108.904ZM263.495 108.786C256.883 108.64 253.517 105.681 253.409 99.9098L253.441 89.5173C253.484 82.7842 256.948 79.4177 263.82 79.4177C266.03 79.4177 272.615 80.3046 273.3 80.2004L278.554 79.4492C281.003 79.0993 282.278 80.4742 282.278 82.5127V106.559C282.278 108.086 281.497 108.904 279.955 108.904C276.857 108.904 274.939 109.339 273.3 106.484L263.495 108.786ZM273.3 84.7096C272.541 84.0178 270.127 83.6729 268.652 83.6729C265.405 83.6729 263.788 85.1471 263.788 88.1162V100.119C263.788 103.177 265.396 104.625 268.587 104.625C270.152 104.625 272.525 104.25 273.3 103.502C273.175 102.711 273.308 101.831 273.3 100.861V84.7096ZM186.962 108.786C180.35 108.64 176.984 105.681 176.876 99.9098L176.908 89.5173C176.952 82.7842 180.415 79.4177 187.288 79.4177C189.497 79.4177 196.082 80.3046 196.766 80.2004L202.021 79.4492C204.469 79.0993 205.745 80.4742 205.745 82.5127V106.559C205.745 108.086 204.963 108.904 203.422 108.904C200.324 108.904 198.405 109.339 196.766 106.484L186.962 108.786H186.962ZM196.767 84.7096C196.009 84.0178 193.594 83.6729 192.119 83.6729C188.873 83.6729 187.255 85.1471 187.255 88.1162V100.119C187.255 103.177 188.864 104.625 192.054 104.625C193.619 104.625 195.992 104.25 196.767 103.502C196.642 102.711 196.775 101.831 196.767 100.861V84.7096ZM127.9 108.786C121.288 108.64 117.922 105.681 117.814 99.9098L117.846 89.5173C117.89 82.7842 121.353 79.4177 128.226 79.4177C130.435 79.4177 137.021 80.3046 137.705 80.2004L142.96 79.4492C145.408 79.0993 146.684 80.4742 146.684 82.5127V106.559C146.684 108.086 145.902 108.904 144.36 108.904C141.262 108.904 139.344 109.339 137.705 106.484L127.9 108.786ZM137.705 84.7096C136.947 84.0178 134.532 83.6729 133.057 83.6729C129.811 83.6729 128.193 85.1471 128.193 88.1162V100.119C128.193 103.177 129.802 104.625 132.992 104.625C134.558 104.625 136.93 104.25 137.705 103.502C137.581 102.711 137.713 101.831 137.705 100.861V84.7096ZM100.57 98.4285H112.795C114.207 98.4285 114.908 99.1132 114.908 100.462C114.908 108.966 107.24 108.465 100.57 108.465C99.3892 108.465 98.2077 108.465 97.0261 108.465C94.2653 108.465 92.0039 106.207 92.0039 103.447C92.0039 100.624 94.2639 98.4285 97.0261 98.4285H100.57Z" fill="#101010"/>
<path d="M201.91 122.673V124.938L193.854 121.449V119.509L201.91 116.02V118.301L196.296 120.462L201.91 122.673ZM206.892 115.973L204.65 125.198C204.472 125.92 204.405 126.479 203.696 126.479C202.643 126.479 202.85 125.679 203.039 124.853C203.306 123.69 205.312 115.122 205.61 114.621C205.862 114.196 207.062 114.185 207.062 115.069C207.062 115.233 207.004 115.533 206.892 115.973V115.973ZM356.755 124.955V122.69L362.385 120.479L356.755 118.301V116.052L364.81 119.528L356.755 124.954V124.955Z" fill="#BE00F2"/>
<path d="M210.025 114.544C211.474 114.544 213.938 114.44 215.202 114.768C218.907 115.731 219.278 121.289 217.857 123.886C216.832 125.759 215.216 126.282 213.175 126.282H210.074C208.801 126.282 208.568 125.744 208.568 124.61V116C208.568 114.979 209.003 114.544 210.025 114.544H210.025ZM210.947 116.429V124.397C211.906 124.397 213.578 124.492 214.379 124.206C216.605 123.409 216.487 119.108 215.672 117.765C214.702 116.168 212.927 116.429 210.947 116.429V116.429ZM228.433 116.38H223.074V119.265H228.009C229.484 119.265 229.465 121.052 228.009 121.052H223.074V124.397H228.617C230.147 124.397 230.151 126.282 228.617 126.282H222.152C221.127 126.282 220.695 125.85 220.695 124.826V116C220.695 114.975 221.131 114.544 222.152 114.544H228.433C229.956 114.544 229.954 116.38 228.433 116.38ZM240.563 122.763C240.563 126.693 235.291 127.144 233.032 125.826C231.038 124.662 230.594 121.987 232.297 121.987C233.851 121.987 232.951 124.741 235.838 124.741C238.451 124.741 239.085 122.248 236.937 121.514C234.921 120.825 231.457 120.711 231.457 117.628C231.457 113.617 238.393 113.377 239.811 116.259C240.673 118.012 239.011 118.714 238.381 118.114C237.622 117.393 237.792 116.035 235.706 116.035C233.522 116.035 232.72 118.042 235.058 118.751C237.41 119.464 240.563 119.631 240.563 122.762V122.763ZM250.319 116.38H244.96V119.265H249.895C251.37 119.265 251.351 121.052 249.895 121.052H244.96V124.397H250.502C252.033 124.397 252.037 126.282 250.502 126.282H244.038C243.013 126.282 242.581 125.85 242.581 124.826V116C242.581 114.975 243.017 114.544 244.038 114.544H250.319C251.842 114.544 251.84 116.38 250.319 116.38ZM256.63 115.773L261.202 122.692V115.708C261.202 114.076 262.619 114.145 263.089 114.686C263.285 114.913 263.384 115.254 263.384 115.708V124.935C263.384 126.863 261.697 126.672 261.049 126.096L260.248 125.08L255.788 118.249V125.118C255.788 126.95 253.557 126.965 253.557 125.118V116.068C253.557 115.092 253.967 114.347 254.951 114.347C255.841 114.347 256.163 115.029 256.63 115.773H256.63ZM267.732 115.907L270.389 123.774L273.055 115.853C273.319 115.066 273.464 114.347 274.368 114.347C275.048 114.347 275.64 114.928 275.44 115.792L275.177 116.595L272.336 124.263C271.95 125.327 271.674 126.479 270.334 126.479C268.997 126.479 268.712 125.347 268.325 124.263L265.383 116.251C264.625 114.246 266.724 113.993 267.215 114.718C267.384 114.967 267.557 115.363 267.732 115.907L267.732 115.907ZM282.229 114.347C288.939 114.347 289.032 122.053 286.547 124.799C283.976 127.638 276.52 127.415 276.52 120.38C276.52 116.805 278.55 114.347 282.229 114.347ZM285.609 120.38C285.609 115.707 281.429 115.447 279.872 117.282C278.259 119.183 278.483 124.594 282.262 124.594C284.572 124.594 285.609 122.634 285.609 120.38ZM292.385 115.787V124.331H297.208C298.787 124.331 298.844 126.282 297.208 126.282H291.463C290.438 126.282 290.006 125.851 290.006 124.826V115.787C290.006 113.827 292.385 113.844 292.385 115.787ZM299.855 115.907L302.513 123.774L305.179 115.853C305.442 115.066 305.587 114.347 306.491 114.347C307.172 114.347 307.763 114.928 307.563 115.792L307.301 116.595L304.46 124.263C304.073 125.327 303.798 126.479 302.458 126.479C301.121 126.479 300.835 125.347 300.448 124.263L297.506 116.251C296.748 114.246 298.848 113.993 299.338 114.718C299.508 114.967 299.68 115.363 299.855 115.907L299.855 115.907ZM317.139 116.38H311.78V119.265H316.715C318.19 119.265 318.171 121.052 316.715 121.052H311.78V124.397H317.322C318.853 124.397 318.857 126.282 317.322 126.282H310.858C309.833 126.282 309.401 125.85 309.401 124.826V116C309.401 114.975 309.836 114.544 310.858 114.544H317.139C318.662 114.544 318.66 116.38 317.139 116.38ZM321.817 114.544C323.266 114.544 325.73 114.439 326.994 114.768C330.699 115.731 331.07 121.288 329.649 123.886C328.624 125.758 327.009 126.282 324.967 126.282H321.866C320.593 126.282 320.36 125.744 320.36 124.61V116C320.36 114.978 320.795 114.544 321.817 114.544H321.817ZM322.739 116.429V124.397C323.698 124.397 325.37 124.492 326.171 124.205C328.397 123.409 328.279 119.107 327.464 117.765C326.494 116.167 324.719 116.429 322.739 116.429V116.429ZM337.655 114.347C344.365 114.347 344.458 122.052 341.972 124.798C339.402 127.638 331.945 127.414 331.945 120.38C331.945 116.805 333.975 114.347 337.655 114.347ZM341.035 120.38C341.035 115.706 336.855 115.446 335.298 117.281C333.685 119.183 333.909 124.593 337.688 124.593C339.997 124.593 341.035 122.634 341.035 120.38ZM348.677 121.265H347.843V125.03C347.843 126.792 346.258 126.68 345.776 126.11C345.568 125.864 345.464 125.506 345.464 125.03V116C345.464 114.978 345.899 114.543 346.921 114.543C348.064 114.543 351.157 114.489 352.16 114.612C355.261 114.99 355.657 118.423 354.288 119.871C353.793 120.393 353.044 120.765 352.04 120.984C353.494 121.757 355.237 124.664 355.237 125.527C355.237 126.387 353.785 127.031 352.951 125.814C352.063 124.52 350.88 121.898 349.724 121.432C349.448 121.32 349.098 121.265 348.677 121.265ZM350.039 116.331H347.843V119.56C348.827 119.56 350.564 119.628 351.417 119.413C353.076 118.993 352.914 117.025 351.679 116.505C351.403 116.388 350.856 116.33 350.039 116.33V116.331Z" fill="#606062"/>
<path d="M24.6537 51.677L8.97585 41.9264L45.2676 16.5832C51.5403 12.6832 60.4927 16.3931 60.4927 22.8942C60.4927 25.3768 59.0841 27.7168 56.6853 29.2052L24.654 51.677H24.6537ZM57.1003 73.3804L40.481 63.0925L24.7836 53.3909L8.77759 43.4983V59.3737C8.77759 61.5337 9.86818 63.5799 11.7601 65.03L45.4673 85.8649C51.7403 89.7649 60.6927 86.055 60.6927 79.5539C60.6927 77.1465 59.3679 74.8733 57.1003 73.3804Z" fill="#101010"/>
<path d="M40.3663 63.2067L56.5703 51.9196C58.969 50.4312 60.3777 48.0912 60.3777 45.6086C60.3777 39.1072 51.4253 35.3976 45.1525 39.2976L24.6686 53.5054L40.366 63.207L40.3663 63.2067ZM12.4946 87.1409L45.2691 107.334C50.87 110.817 60.4924 108.183 60.4924 101.026C60.1173 98.1277 59.2416 96.3022 56.685 94.7154L8.77759 65.1063V80.9816C8.77759 84.7744 12.4946 87.3482 12.4946 87.1406V87.1409Z" fill="url(#paint0_linear_209_262)"/>
<defs>
<linearGradient id="paint0_linear_209_262" x1="10.2454" y1="91.2021" x2="51.291" y2="97.6588" gradientUnits="userSpaceOnUse">
<stop stop-color="#101010"/>
<stop offset="0.6" stop-color="#1E0027"/>
<stop offset="0.729412" stop-color="#3D004E"/>
<stop offset="1" stop-color="#C800FF"/>
</linearGradient>
</defs>
</svg>
