<svg width="373" height="142" viewBox="0 0 373 142" fill="none" xmlns="http://www.w3.org/2000/svg">
<path d="M109.323 74.8493C112.148 74.8493 114.408 72.591 114.408 69.7683C114.408 67.008 112.148 64.7497 109.323 64.7497C106.841 64.7497 97.6158 64.3178 95.8894 64.7497C90.9299 64.938 86.5984 67.6353 83.4595 71.713C74.7319 83.0919 78.3891 102.88 91.3068 107.72C88.7766 104.47 89.8185 99.5334 93.6294 97.6835C87.9857 93.9246 87.1685 83.4489 91.4949 77.7979C92.8759 75.9789 94.6335 74.8496 96.5172 74.8496H109.324L109.323 74.8493ZM109.386 25.904C112.148 25.904 114.408 23.6457 114.408 20.8227C114.408 18.0627 112.147 15.7456 109.386 15.7456H85.6877C81.4829 16.446 78.4572 17.9255 78.4572 20.8227V33.4947C79.7128 32.1144 81.7646 31.1633 83.7734 31.1633H88.7957V25.9043H109.386L109.386 25.904ZM88.7401 48.8217V61.357C88.7401 62.7685 88.0392 63.4689 86.6582 63.4689C80.2582 63.4689 78.4658 59.2561 78.4658 52.815V46.0513H78.5152L78.4575 37.8227C78.4361 35.0624 80.9487 32.8044 83.7737 32.8044H99.6611C102.423 32.8044 104.683 35.0624 104.683 37.8227C104.683 40.583 102.421 42.841 99.6611 42.841H88.7957L88.7401 48.8217ZM127.547 59.6324H118.35C112.073 59.6324 108.871 56.7783 108.725 51.0592L108.505 39.3286C108.505 33.3167 111.885 30.3057 118.623 30.2849H128.646C134.599 30.2849 137.57 33.4843 137.57 39.8725C137.57 44.5353 134.568 47.4943 128.551 48.7593C122.546 50.0244 119.459 51.0803 119.302 51.9165C118.894 54.0512 119.472 56.1091 121.259 56.1091H125.549C127.066 56.1091 128.101 55.3356 128.677 53.7777C129.253 52.2304 130.906 51.4567 133.647 51.4567C135.813 51.4567 136.89 51.9168 136.89 52.837C136.995 52.9727 137.047 53.3387 137.047 53.903C137.026 57.6254 133.856 59.5282 127.547 59.6324ZM119.972 47.2537C121.427 47.2537 123.184 46.6994 125.245 45.5704C128.656 43.7271 128.008 41.491 127.976 38.4087C127.976 35.3036 126.647 33.7456 123.99 33.7456C120.6 33.7456 118.905 35.3241 118.905 38.4714V44.6817C118.905 46.3965 119.261 47.2537 119.972 47.2537H119.972ZM143.241 15.8044H143.879C148.661 15.8044 151.067 18.5436 151.088 24.0431V57.7926C151.088 59.2041 150.387 59.9042 149.006 59.9042C142.606 59.9042 140.814 55.6914 140.814 49.2503V18.7109C140.814 16.7662 141.63 15.8044 143.241 15.8044ZM159.332 27.3782C156.005 27.3782 154.331 25.7472 154.331 22.4748C154.331 19.2128 156.005 17.5818 159.332 17.5818C162.659 17.5818 164.334 19.2128 164.334 22.4748C164.334 25.7472 162.66 27.3782 159.332 27.3782ZM155.681 59.7581C154.865 59.737 154.457 59.3713 154.457 58.6496L154.331 38.3143C154.373 33.0657 156.058 30.4207 159.395 30.3788L162.094 30.3161C163.58 30.3161 164.334 31.0899 164.334 32.6163V56.663C164.334 58.7018 163.13 59.7263 160.745 59.7263L155.681 59.7578V59.7581ZM186.64 51.2995L186.494 38.6802C186.494 35.6169 185.029 34.0905 182.11 34.0905C179.159 34.0905 177.695 35.6796 177.695 38.8685V51.2995C177.735 51.9628 177.742 52.7289 177.742 53.5448L177.743 73.941C177.743 75.3498 177.062 76.0529 175.72 76.0529C173.036 76.0529 171.043 75.2357 169.733 73.6062C167.775 71.1715 167.775 67.6021 167.761 64.455L167.577 39.14C167.539 33.8223 170.68 30.8849 176.668 30.3298L185.51 30.2324C192.844 30.2324 196.517 33.0657 196.517 38.7429V51.4879C196.517 56.8721 193.043 59.5695 186.096 59.5695C184.216 59.5695 180.437 60.2779 179.887 58.3487C178.725 54.2767 180.979 54.3102 182.411 55.3902C184.206 56.7444 186.672 54.0358 186.64 51.2992L186.64 51.2995ZM218.108 59.6324H208.911C202.633 59.6324 199.432 56.7783 199.285 51.0592L199.065 39.3286C199.065 33.3167 202.445 30.3057 209.183 30.2849H219.206C225.159 30.2849 228.131 33.4843 228.131 39.8725C228.131 44.5353 225.128 47.4943 219.112 48.7593C213.107 50.0244 210.02 51.0803 209.863 51.9165C209.454 54.0512 210.032 56.1091 211.82 56.1091H216.109C217.627 56.1091 218.662 55.3356 219.238 53.7777C219.813 52.2304 221.466 51.4567 224.208 51.4567C226.374 51.4567 227.451 51.9168 227.451 52.837C227.556 52.9727 227.608 53.3387 227.608 53.903C227.587 57.6254 224.417 59.5282 218.108 59.6324H218.108ZM210.533 47.2537C211.987 47.2537 213.745 46.6994 215.806 45.5704C219.216 43.7271 218.569 41.491 218.537 38.4087C218.537 35.3036 217.208 33.7456 214.55 33.7456C211.161 33.7456 209.466 35.3241 209.466 38.4714V44.6817C209.466 46.3965 209.822 47.2537 210.533 47.2537H210.533ZM332.291 108.892H325.238C319.423 108.892 316.46 106.236 316.502 100.925L316.733 67.1125C316.733 65.7011 317.434 65.0007 318.815 65.0007C325.215 65.0007 327.007 69.2134 327.007 75.6546V79.4497H331.401C333.465 79.4497 333.859 80.6182 333.859 82.3039C333.859 85.5471 330.844 84.1873 327.76 84.8135C327.058 84.9596 326.713 85.859 326.713 87.5108V100.831C326.713 103.308 327.77 104.542 329.873 104.542C331.974 104.542 334.618 104.162 334.654 106.654C334.674 107.954 334.458 108.892 332.29 108.892H332.291ZM162.014 108.797C159.785 108.797 158.132 107.386 157.044 104.573L149.438 83.893C148.72 81.9519 148.948 80.3236 151.216 79.5124C152.304 79.1256 153.361 78.9373 154.376 78.9373C157.096 78.9373 158.822 80.0248 159.555 82.2097L164.985 96.9724L169.181 80.6518C169.432 79.7946 170.122 79.3659 171.263 79.3659C172.738 79.3659 173.47 79.9514 173.47 81.1434C173.47 83.4471 168.39 101.973 167.339 105.431C166.67 107.679 164.891 108.797 162.014 108.797L162.014 108.797ZM210.56 65.001H211.199C215.98 65.001 218.387 67.7399 218.407 73.2394V106.989C218.407 108.4 217.707 109.1 216.326 109.1C209.926 109.1 208.133 104.888 208.133 98.4466V67.9071C208.133 65.9624 208.949 65.0007 210.561 65.0007L210.56 65.001ZM239.571 109.017H231.453C224.735 109.017 221.366 106.142 221.366 100.402L221.304 89.811C221.304 83.1302 224.631 79.7952 231.275 79.7952H239.571C246.529 79.7952 250.002 82.0535 250.002 86.5597C250.002 87.9504 249.103 88.6508 247.303 88.6716L243.558 88.7346C241.433 88.7346 240.283 87.94 240.115 86.3506C239.937 84.7511 238.515 83.9566 235.836 83.9566C232.645 83.9566 231.055 86.0162 231.055 90.1461V100.622C231.055 103.152 232.488 104.417 235.345 104.417C237.939 104.396 239.823 103.518 240.984 101.783C242.981 98.7457 245.043 99.3187 248.004 99.4303C249.333 99.4719 250.003 100.225 250.003 101.688C249.961 103.717 249.197 105.379 247.732 106.686C246.037 108.234 243.317 109.018 239.571 109.018L239.571 109.017ZM354.278 108.829H345.082C338.804 108.829 335.602 105.975 335.456 100.256L335.236 88.5252C335.236 82.5133 338.616 79.5023 345.354 79.4815H355.377C361.33 79.4815 364.302 82.6805 364.302 89.0687C364.302 93.7318 361.299 96.6905 355.283 97.9559C349.277 99.2209 346.19 100.277 346.034 101.113C345.625 103.248 346.203 105.306 347.99 105.306H352.28C353.797 105.306 354.833 104.532 355.408 102.974C355.984 101.427 357.637 100.653 360.378 100.653C362.544 100.653 363.622 101.113 363.622 102.033C363.726 102.169 363.778 102.535 363.778 103.1C363.757 106.822 360.587 108.725 354.278 108.829ZM346.703 96.4502C348.157 96.4502 349.915 95.896 351.976 94.7667C355.387 92.923 354.74 90.6876 354.707 87.605C354.707 84.4998 353.379 82.9422 350.721 82.9422C347.331 82.9422 345.637 84.5206 345.637 87.6679V93.8783C345.637 95.5927 345.992 96.4502 346.703 96.4502H346.703ZM306.836 109.101C304.607 109.101 303.488 108.087 303.488 106.069C303.493 104.513 303.685 87.3804 303.56 87.3804C303.578 83.7935 294.94 82.2739 294.94 88.2745L295.086 106.069C295.086 108.087 293.967 109.101 291.717 109.101C287.04 109.101 284.686 106.174 284.665 100.308V82.546C284.665 80.5074 286.295 79.1328 288.73 79.4827L293.957 80.2339C297.241 80.7136 311.4 76.4574 313.451 87.3801H313.435C313.548 88.0853 313.605 88.862 313.605 89.7166V101.228C313.605 106.477 311.345 109.1 306.835 109.1L306.836 109.101ZM262.985 108.983C256.373 108.836 253.007 105.877 252.899 100.106L252.931 89.7136C252.975 82.9805 256.438 79.614 263.311 79.614C265.52 79.614 272.106 80.5009 272.79 80.3966L278.045 79.6455C280.493 79.2955 281.769 80.6705 281.769 82.709V106.756C281.769 108.282 280.987 109.101 279.445 109.101C276.348 109.101 274.429 109.535 272.79 106.681L262.985 108.983ZM272.79 84.9059C272.032 84.2141 269.618 83.8692 268.142 83.8692C264.896 83.8692 263.278 85.3434 263.278 88.3125V100.315C263.278 103.373 264.887 104.821 268.077 104.821C269.642 104.821 272.015 104.447 272.79 103.699C272.665 102.907 272.798 102.027 272.79 101.058V84.9059ZM186.453 108.983C179.841 108.836 176.475 105.877 176.366 100.106L176.399 89.7136C176.442 82.9805 179.905 79.614 186.778 79.614C188.987 79.614 195.573 80.5009 196.257 80.3966L201.511 79.6455C203.96 79.2955 205.236 80.6705 205.236 82.709V106.756C205.236 108.282 204.454 109.101 202.912 109.101C199.814 109.101 197.896 109.535 196.257 106.681L186.452 108.983H186.453ZM196.257 84.9059C195.499 84.2141 193.085 83.8692 191.61 83.8692C188.363 83.8692 186.746 85.3434 186.746 88.3125V100.315C186.746 103.373 188.354 104.821 191.545 104.821C193.11 104.821 195.482 104.447 196.257 103.699C196.133 102.907 196.265 102.027 196.257 101.058V84.9059ZM127.39 108.983C120.779 108.836 117.413 105.877 117.304 100.106L117.337 89.7136C117.38 82.9805 120.844 79.614 127.716 79.614C129.925 79.614 136.511 80.5009 137.195 80.3966L142.45 79.6455C144.899 79.2955 146.174 80.6705 146.174 82.709V106.756C146.174 108.282 145.392 109.101 143.851 109.101C140.753 109.101 138.834 109.535 137.195 106.681L127.39 108.983ZM137.195 84.9059C136.437 84.2141 134.023 83.8692 132.548 83.8692C129.301 83.8692 127.684 85.3434 127.684 88.3125V100.315C127.684 103.373 129.292 104.821 132.483 104.821C134.048 104.821 136.42 104.447 137.195 103.699C137.071 102.907 137.203 102.027 137.195 101.058V84.9059ZM100.061 98.6248H112.285C113.698 98.6248 114.399 99.3095 114.399 100.659C114.399 109.163 106.731 108.662 100.061 108.662C98.8797 108.662 97.6981 108.662 96.5166 108.662C93.7558 108.662 91.4943 106.403 91.4943 103.643C91.4943 100.82 93.7543 98.6248 96.5166 98.6248H100.061Z" fill="white"/>
<path d="M201.4 122.869V125.134L193.345 121.645V119.705L201.4 116.216V118.497L195.787 120.659L201.4 122.869ZM206.382 116.169L204.14 125.394C203.962 126.116 203.895 126.676 203.186 126.676C202.133 126.676 202.341 125.875 202.53 125.05C202.797 123.886 204.802 115.318 205.1 114.817C205.353 114.392 206.552 114.381 206.552 115.265C206.552 115.429 206.495 115.73 206.382 116.17V116.169ZM356.245 125.151V122.886L361.875 120.675L356.245 118.497V116.249L364.301 119.724L356.245 125.151V125.151Z" fill="#BE00F2"/>
<path d="M209.516 114.74C210.964 114.74 213.429 114.636 214.692 114.964C218.398 115.927 218.768 121.485 217.347 124.082C216.322 125.955 214.707 126.479 212.666 126.479H209.565C208.291 126.479 208.058 125.941 208.058 124.806V116.197C208.058 115.175 208.493 114.74 209.516 114.74H209.516ZM210.437 116.625V124.593C211.396 124.593 213.069 124.688 213.869 124.402C216.096 123.606 215.977 119.304 215.162 117.962C214.193 116.364 212.418 116.626 210.437 116.626V116.625ZM227.924 116.576H222.564V119.461H227.5C228.975 119.461 228.956 121.248 227.5 121.248H222.564V124.593H228.107C229.638 124.593 229.641 126.478 228.107 126.478H221.643C220.617 126.478 220.186 126.047 220.186 125.022V116.196C220.186 115.171 220.621 114.74 221.643 114.74H227.924C229.446 114.74 229.444 116.576 227.924 116.576ZM240.053 122.959C240.053 126.889 234.782 127.34 232.523 126.022C230.528 124.859 230.085 122.183 231.787 122.183C233.341 122.183 232.441 124.937 235.328 124.937C237.942 124.937 238.576 122.444 236.428 121.71C234.412 121.021 230.948 120.907 230.948 117.825C230.948 113.813 237.884 113.573 239.301 116.456C240.164 118.209 238.502 118.911 237.871 118.311C237.113 117.59 237.283 116.231 235.197 116.231C233.013 116.231 232.211 118.238 234.549 118.947C236.9 119.66 240.053 119.828 240.053 122.958V122.959ZM249.809 116.576H244.45V119.461H249.386C250.861 119.461 250.842 121.248 249.386 121.248H244.45V124.593H249.993C251.523 124.593 251.527 126.478 249.993 126.478H243.529C242.503 126.478 242.071 126.047 242.071 125.022V116.196C242.071 115.171 242.507 114.74 243.529 114.74H249.809C251.332 114.74 251.33 116.576 249.809 116.576ZM256.121 115.97L260.692 122.888V115.904C260.692 114.273 262.109 114.341 262.579 114.882C262.776 115.109 262.875 115.45 262.875 115.904V125.131C262.875 127.059 261.187 126.869 260.539 126.293L259.738 125.276L255.278 118.445V125.314C255.278 127.146 253.047 127.161 253.047 125.314V116.265C253.047 115.288 253.457 114.543 254.442 114.543C255.332 114.543 255.654 115.225 256.121 115.97H256.121ZM267.222 116.104L269.88 123.97L272.546 116.049C272.809 115.262 272.954 114.543 273.858 114.543C274.539 114.543 275.131 115.125 274.93 115.989L274.668 116.792L271.827 124.459C271.441 125.523 271.165 126.675 269.825 126.675C268.488 126.675 268.202 125.543 267.815 124.459L264.873 116.448C264.115 114.442 266.215 114.189 266.705 114.915C266.875 115.163 267.047 115.559 267.222 116.103L267.222 116.104ZM281.72 114.543C288.429 114.543 288.523 122.249 286.037 124.995C283.467 127.834 276.01 127.611 276.01 120.577C276.01 117.001 278.04 114.543 281.72 114.543ZM285.099 120.577C285.099 115.903 280.92 115.643 279.363 117.478C277.75 119.379 277.974 124.79 281.753 124.79C284.062 124.79 285.099 122.83 285.099 120.577ZM291.875 115.983V124.528H296.699C298.277 124.528 298.335 126.479 296.699 126.479H290.954C289.928 126.479 289.496 126.047 289.496 125.022V115.983C289.496 114.023 291.875 114.041 291.875 115.983ZM299.346 116.104L302.003 123.97L304.669 116.049C304.933 115.262 305.078 114.543 305.982 114.543C306.662 114.543 307.254 115.125 307.054 115.989L306.791 116.792L303.95 124.459C303.564 125.523 303.288 126.675 301.948 126.675C300.611 126.675 300.326 125.543 299.939 124.459L296.997 116.448C296.239 114.442 298.338 114.189 298.829 114.915C298.998 115.163 299.171 115.559 299.346 116.103L299.346 116.104ZM316.629 116.576H311.27V119.461H316.205C317.68 119.461 317.661 121.248 316.205 121.248H311.27V124.593H316.813C318.343 124.593 318.347 126.478 316.813 126.478H310.349C309.323 126.478 308.891 126.047 308.891 125.022V116.196C308.891 115.171 309.327 114.74 310.349 114.74H316.629C318.152 114.74 318.15 116.576 316.629 116.576ZM321.308 114.74C322.756 114.74 325.221 114.636 326.484 114.964C330.19 115.927 330.56 121.485 329.139 124.082C328.114 125.955 326.499 126.478 324.458 126.478H321.357C320.083 126.478 319.85 125.94 319.85 124.806V116.196C319.85 115.175 320.285 114.74 321.308 114.74H321.308ZM322.229 116.625V124.593C323.188 124.593 324.861 124.688 325.661 124.402C327.888 123.605 327.769 119.304 326.954 117.961C325.985 116.364 324.21 116.625 322.229 116.625V116.625ZM337.145 114.543C343.855 114.543 343.948 122.249 341.463 124.995C338.892 127.834 331.436 127.611 331.436 120.576C331.436 117.001 333.466 114.543 337.145 114.543ZM340.525 120.576C340.525 115.903 336.346 115.643 334.788 117.478C333.175 119.379 333.399 124.79 337.178 124.79C339.488 124.79 340.525 122.83 340.525 120.576ZM348.168 121.461H347.333V125.227C347.333 126.989 345.749 126.877 345.266 126.306C345.059 126.06 344.955 125.702 344.955 125.227V116.196C344.955 115.174 345.39 114.74 346.412 114.74C347.555 114.74 350.647 114.685 351.651 114.808C354.751 115.187 355.148 118.62 353.778 120.068C353.283 120.59 352.534 120.961 351.531 121.18C352.984 121.953 354.727 124.861 354.727 125.724C354.727 126.583 353.276 127.227 352.441 126.011C351.553 124.717 350.371 122.094 349.215 121.628C348.939 121.516 348.589 121.461 348.168 121.461ZM349.529 116.527H347.333V119.756C348.317 119.756 350.054 119.824 350.907 119.609C352.566 119.19 352.405 117.221 351.17 116.701C350.894 116.584 350.347 116.527 349.529 116.527V116.527Z" fill="white"/>
<path d="M24.1442 51.8733L8.46633 42.1227L44.758 16.7795C51.0308 12.8795 59.9832 16.5894 59.9832 23.0905C59.9832 25.5731 58.5745 27.9131 56.1758 29.4015L24.1445 51.8733H24.1442ZM56.5907 73.5767L39.9715 63.2888L24.2741 53.5872L8.26807 43.6946V59.57C8.26807 61.73 9.35865 63.7762 11.2506 65.2263L44.9578 86.0612C51.2308 89.9612 60.1832 86.2513 60.1832 79.7502C60.1832 77.3428 58.8584 75.0696 56.5907 73.5767Z" fill="white"/>
<path d="M39.8568 63.403L56.0607 52.1159C58.4595 50.6275 59.8681 48.2875 59.8681 45.8049C59.8681 39.3035 50.9157 35.5939 44.643 39.4939L24.159 53.7017L39.8565 63.4033L39.8568 63.403ZM11.9851 87.3371L44.7595 107.531C50.3605 111.013 59.9829 108.379 59.9829 101.223C59.6078 98.324 58.7321 96.4984 56.1755 94.9117L8.26807 65.3025V81.1779C8.26807 84.9707 11.9851 87.5445 11.9851 87.3368V87.3371Z" fill="white"/>
</svg>
