<svg width="665" height="277" viewBox="0 0 665 277" fill="none" xmlns="http://www.w3.org/2000/svg">
<path d="M478.676 105.441L490.52 105.493H544.957C551.996 105.493 556.106 110.905 554.363 117.451L551.882 128.488L551.503 129.567C549.397 135.649 542.819 140.547 536.109 140.547H481.674L469.796 140.648L472.683 128.171L478.676 105.441L478.676 105.441ZM226.54 62.7979L211.002 83.4821L141.657 177.196L115.717 62.7978H60.7661L98.472 218.636H161.737L282.665 62.7978H226.54L226.54 62.7979ZM239.269 218.637L254.808 197.952L324.152 104.239L350.093 218.637H399.855H405.043H448.774L458.55 181.64H487.404L515.568 218.501H584.533L551.702 178.799C573.099 173.284 592.93 155.675 598.879 133.174L600.107 128.531L600.219 128.119L604.659 111.282C611.751 84.4263 596.69 62.7979 570.881 62.7979H361.69L361.69 62.7981H304.073L183.144 218.637H239.269V218.637ZM402.561 208.379L368.547 67.7967L428.2 111.282L423.762 128.119L422.418 133.174L412.659 170.148L410.243 179.259L402.561 208.378V208.379Z" fill="#0E0E0E"/>
<path d="M132.247 62.7976L149.181 137.477L194.449 76.3002L204.593 62.7976H132.247Z" fill="#01C2CB"/>
<path d="M405.779 136.967L409.012 124.72L409.457 123.046L410.927 117.468L391.168 103.064L402.435 149.631L404.979 139.985L405.779 136.967Z" fill="#C9E165"/>
<path d="M255.64 219.251L289.5 206.196L312.308 156.972L310.27 211.166L338.709 238.102L317.747 140.65L255.64 219.251Z" fill="#FE6150"/>
</svg>
