<svg width="19" height="20" viewBox="0 0 19 20" fill="none" xmlns="http://www.w3.org/2000/svg">
<path d="M17.291 4H18.001C18.2662 4 18.5206 4.10536 18.7081 4.29289C18.8956 4.48043 19.001 4.73478 19.001 5V12C19.001 12.2652 18.8956 12.5196 18.7081 12.7071C18.5206 12.8946 18.2662 13 18.001 13H16.001L11.831 7.164C11.5885 6.82464 11.2459 6.56961 10.8512 6.43459C10.4566 6.29957 10.0296 6.29132 9.63 6.411L7.144 7.157C6.79817 7.26052 6.43078 7.26852 6.08078 7.18014C5.73077 7.09176 5.41122 6.9103 5.156 6.655L4.863 6.362C4.75839 6.25741 4.67829 6.13092 4.62846 5.99163C4.57864 5.85235 4.56034 5.70375 4.57488 5.55654C4.58942 5.40933 4.63644 5.26718 4.71254 5.14033C4.78865 5.01348 4.89195 4.9051 5.015 4.823L10.416 1.223C10.7384 1.00791 11.1164 0.891133 11.5039 0.886872C11.8915 0.882611 12.2719 0.991049 12.599 1.199L16.755 3.844C16.9149 3.94564 17.1015 3.99974 17.291 4ZM3.027 12.295L1.411 13.709C1.30055 13.8058 1.21279 13.9258 1.15395 14.0603C1.09511 14.1949 1.06663 14.3408 1.07055 14.4876C1.07446 14.6344 1.11067 14.7786 1.1766 14.9098C1.24252 15.0411 1.33655 15.1562 1.452 15.247L6.592 19.287C6.70499 19.3759 6.83584 19.4395 6.97562 19.4733C7.11539 19.507 7.26081 19.5103 7.40195 19.4828C7.5431 19.4552 7.67664 19.3976 7.79348 19.3138C7.91032 19.2299 8.00771 19.1219 8.079 18.997L8.783 17.765C8.99264 17.3981 9.08069 16.9743 9.03452 16.5542C8.98835 16.1342 8.81033 15.7396 8.526 15.427L5.824 12.455C5.47164 12.0673 4.98123 11.8334 4.4582 11.8034C3.93516 11.7735 3.42127 11.95 3.027 12.295ZM5.046 3H1C0.734784 3 0.48043 3.10536 0.292893 3.29289C0.105357 3.48043 0 3.73478 0 4V11.516C5.35399e-05 11.9193 0.122058 12.3132 0.35 12.646L0.424 12.58L2.039 11.166C2.72899 10.5622 3.62835 10.2533 4.54372 10.3057C5.45909 10.358 6.31736 10.7675 6.934 11.446L9.636 14.418C10.1333 14.9649 10.4447 15.6552 10.5255 16.3899C10.6063 17.1246 10.4525 17.8661 10.086 18.508L9.431 19.654C9.71358 19.7612 10.0168 19.8029 10.3178 19.776C10.6188 19.7492 10.9098 19.6545 11.169 19.499L15.579 16.853C15.6972 16.782 15.7995 16.6872 15.8794 16.5747C15.9592 16.4622 16.0149 16.3345 16.043 16.1994C16.0711 16.0643 16.0709 15.9249 16.0425 15.7899C16.0141 15.6549 15.9581 15.5273 15.878 15.415L10.611 8.036C10.5503 7.95125 10.4647 7.88758 10.3661 7.85387C10.2675 7.82016 10.1608 7.81811 10.061 7.848L7.575 8.593C6.9698 8.77455 6.32673 8.78888 5.71404 8.63448C5.10135 8.48007 4.54188 8.16269 4.095 7.716L3.802 7.423C3.54038 7.16152 3.34005 6.84525 3.21544 6.497C3.09083 6.14874 3.04505 5.77717 3.0814 5.40908C3.11775 5.04098 3.23532 4.68555 3.42564 4.36839C3.61597 4.05123 3.87429 3.78025 4.182 3.575L5.046 3Z" fill="black"/>
</svg>
