<svg width="19" height="18" viewBox="0 0 19 18" fill="none" xmlns="http://www.w3.org/2000/svg">
<path fill-rule="evenodd" clip-rule="evenodd" d="M15.613 0.31C14.628 -5.96046e-08 13.728 0 11.928 0H6.47195C4.67195 0 3.77195 -5.96046e-08 2.78795 0.31C2.26539 0.501341 1.79081 0.804258 1.39723 1.19767C1.00365 1.59108 0.700522 2.06553 0.508951 2.588C0.199951 3.56 0.199951 4.466 0.199951 6.272V11.725C0.199951 13.528 0.199951 14.428 0.509951 15.413C0.700819 15.9357 1.00358 16.4104 1.39706 16.8039C1.79055 17.1974 2.26524 17.5001 2.78795 17.691C3.75995 18 4.66595 18 6.47195 18H11.928C13.728 18 14.628 18 15.613 17.685C16.1357 17.4941 16.6104 17.1914 17.0038 16.7979C17.3973 16.4044 17.7001 15.9297 17.891 15.407C18.2 14.434 18.2 13.528 18.2 11.723V6.275C18.2 4.472 18.2 3.572 17.89 2.588C17.6993 2.06521 17.3968 1.59038 17.0034 1.19672C16.6101 0.803069 16.1356 0.501098 15.613 0.31ZM12.65 6.693C12.6168 6.72644 12.5774 6.75299 12.534 6.7711C12.4906 6.78922 12.444 6.79855 12.397 6.79855C12.3499 6.79855 12.3033 6.78922 12.2599 6.7711C12.2165 6.75299 12.1771 6.72644 12.144 6.693L12.15 6.698C11.4708 6.10748 10.6029 5.77938 9.70295 5.773C8.96095 5.773 8.22095 6.043 8.22095 6.723C8.22095 7.372 8.89895 7.62 9.72595 7.923L9.93095 7.998C11.534 8.552 12.856 9.233 12.856 10.847C12.856 12.599 11.528 13.8 9.34895 13.947L9.15195 14.9C9.13522 14.9843 9.08963 15.0602 9.02302 15.1146C8.95641 15.169 8.87294 15.1985 8.78695 15.198L7.42295 15.187C7.36771 15.1861 7.31337 15.1729 7.26385 15.1484C7.21433 15.1239 7.17087 15.0887 7.13661 15.0453C7.10236 15.002 7.07816 14.9516 7.06577 14.8977C7.05337 14.8439 7.05309 14.788 7.06495 14.734L7.27395 13.73C6.44898 13.5127 5.69399 13.0863 5.08195 12.492C5.04627 12.4567 5.01795 12.4146 4.99863 12.3683C4.9793 12.3219 4.96935 12.2722 4.96935 12.222C4.96935 12.1718 4.9793 12.1221 4.99863 12.0757C5.01795 12.0294 5.04627 11.9873 5.08195 11.952L5.84195 11.192C5.91056 11.1235 6.00353 11.0851 6.10045 11.0851C6.19737 11.0851 6.29034 11.1235 6.35895 11.192C7.08995 11.927 8.03495 12.228 8.93495 12.228C9.92495 12.228 10.595 11.818 10.595 11.117C10.595 10.502 10.045 10.295 9.00295 9.904L8.65295 9.773C7.31295 9.292 6.04395 8.591 6.04395 6.96C6.04395 5.076 7.57995 4.156 9.39095 4.063L9.58795 3.113C9.60431 3.02931 9.64908 2.95384 9.71468 2.89936C9.78028 2.84487 9.86268 2.81472 9.94795 2.814H11.308C11.542 2.814 11.717 3.034 11.668 3.267L11.447 4.336C12.1415 4.56891 12.7837 4.93584 13.337 5.416C13.4939 5.568 13.503 5.821 13.354 5.962L12.65 6.693Z" fill="#0E0E0E"/>
</svg>
