<svg xmlns="http://www.w3.org/2000/svg" xmlns:xlink="http://www.w3.org/1999/xlink" width="1200" zoomAndPan="magnify" viewBox="0 0 900 119.999999" height="160" preserveAspectRatio="xMidYMid meet" version="1.0"><defs><clipPath id="f8c7d9f668"><path d="M 0.210938 0 L 301.894531 0 L 301.894531 103 L 0.210938 103 Z M 0.210938 0 " clip-rule="nonzero"/></clipPath><clipPath id="5a5aabaf1a"><path d="M 300.722656 0 L 605.792969 0 L 605.792969 103 L 300.722656 103 Z M 300.722656 0 " clip-rule="nonzero"/></clipPath></defs><g clip-path="url(#f8c7d9f668)"><path fill="#611974" d="M 0.332031 -5.070312 L 301.683594 -5.070312 L 301.683594 90.726562 C 286.070312 97.496094 262.773438 104.828125 236.472656 101.144531 C 205.929688 96.867188 189.207031 80.246094 173.792969 71.382812 C 146.800781 55.867188 97.636719 49.0625 0.210938 90.601562 Z M 0.332031 -5.070312 " fill-opacity="1" fill-rule="nonzero"/></g><g clip-path="url(#5a5aabaf1a)"><path fill="#611974" d="M 300.875 -5.683594 L 605.59375 -5.683594 L 605.59375 91.1875 C 589.808594 98.035156 566.25 105.445312 539.652344 101.71875 C 508.769531 97.394531 491.863281 80.589844 476.273438 71.628906 C 448.980469 55.9375 399.265625 49.054688 300.753906 91.0625 Z M 300.875 -5.683594 " fill-opacity="1" fill-rule="nonzero"/></g><path fill="#611974" d="M 600.574219 -5.683594 L 912.265625 -5.683594 L 912.265625 93.402344 C 896.117188 100.40625 872.019531 107.988281 844.816406 104.175781 C 813.222656 99.753906 795.929688 82.5625 779.984375 73.398438 C 752.070312 57.347656 701.214844 50.308594 600.449219 93.273438 Z M 600.574219 -5.683594 " fill-opacity="1" fill-rule="nonzero"/></svg>