<svg width="630" height="263" viewBox="0 0 630 263" fill="none" xmlns="http://www.w3.org/2000/svg">
<path d="M453.482 100.002L464.703 100.051H516.275C522.943 100.051 526.838 105.183 525.186 111.392L522.836 121.86L522.477 122.883C520.482 128.651 514.249 133.296 507.893 133.296H456.323L445.07 133.392L447.805 121.559L453.482 100.002L453.482 100.002ZM214.617 59.5583L199.896 79.1753L134.201 168.054L109.626 59.5581H57.5679L93.2893 207.357H153.224L267.788 59.5581H214.617L214.617 59.5583ZM226.676 207.357L241.397 187.74L307.092 98.8613L331.667 207.358H378.81H383.725H425.154L434.416 172.27H461.751L488.432 207.229H553.768L522.665 169.575C542.935 164.344 561.723 147.643 567.359 126.304L568.523 121.9L568.629 121.509L572.835 105.541C579.554 80.0709 565.286 59.5583 540.835 59.5583H342.653L342.653 59.5584H288.069L173.505 207.358H226.676V207.357ZM381.374 197.629L349.15 64.2991L405.663 105.541L401.459 121.509L400.186 126.303L390.94 161.37L388.651 170.011L381.374 197.628V197.629Z" fill="#0E0E0E"/>
<path d="M125.287 59.5581L141.329 130.385L184.215 72.3641L193.825 59.5581H125.287Z" fill="#01C2CB"/>
<path d="M384.423 129.901L387.485 118.286L387.907 116.698L389.299 111.408L370.58 97.7471L381.254 141.912L383.664 132.764L384.423 129.901Z" fill="#C9E165"/>
<path d="M242.185 207.94L274.263 195.559L295.871 148.874L293.94 200.272L320.883 225.819L301.024 133.394L242.185 207.94Z" fill="#FE6150"/>
</svg>
