<svg width="149" height="48" viewBox="0 0 149 48" fill="none" xmlns="http://www.w3.org/2000/svg">
<path d="M113.566 11.549L116.772 11.5631H131.507C133.412 11.5631 134.525 13.0283 134.053 14.8008L133.381 17.7892L133.279 18.0812C132.709 19.7279 130.928 21.0541 129.112 21.0541H114.378L111.163 21.0816L111.944 17.7034L113.566 11.549L113.566 11.549ZM45.319 0.00297216L41.113 5.60337L22.3431 30.9771L15.3215 0.00292969H0.447754L10.6539 42.1975H27.7782L60.5107 0.00292969H45.319L45.319 0.00297216ZM48.7644 42.1976L52.9703 36.5972L71.7403 11.2234L78.7618 42.1976H92.2313H93.6356H105.472L108.119 32.1805H115.929L123.552 42.1609H142.219L133.333 31.4112C139.124 29.9179 144.492 25.1501 146.102 19.0578L146.435 17.8008L146.465 17.6891L147.667 13.1305C149.587 5.85903 145.51 0.00297216 138.524 0.00297216H81.9007L81.9007 0.00301261H66.3052L33.5727 42.1976H48.7644V42.1976ZM92.9638 39.4201L83.7569 1.35642L99.9035 13.1304L98.7024 17.6891L98.3386 19.0578L95.6969 29.0689L95.0429 31.5358L92.9638 39.4201V39.4201Z" fill="white"/>
<path d="M19.7959 0.00292969L24.3796 20.2229L36.6325 3.65886L39.3782 0.00292969H19.7959Z" fill="#01C2CB"/>
<path d="M93.8349 20.0848L94.71 16.7688L94.8305 16.3155L95.2283 14.8054L89.8799 10.9053L92.9296 23.5137L93.6182 20.902L93.8349 20.0848Z" fill="#C9E165"/>
<path d="M53.1953 42.3637L62.3604 38.8291L68.5341 25.5012L67.9824 40.1748L75.6804 47.468L70.0064 21.082L53.1953 42.3637Z" fill="#FE6150"/>
</svg>
