<svg width="81" height="81" viewBox="0 0 81 81" fill="none" xmlns="http://www.w3.org/2000/svg">
<g clip-path="url(#clip0_322_4305)">
<path d="M1.72824 40.0155C1.72634 46.8211 3.51847 53.4662 6.92616 59.3233L1.40234 79.3353L22.0422 73.9655C27.7509 77.0492 34.147 78.665 40.6468 78.6654H40.6639C62.121 78.6654 79.5876 61.3405 79.5968 40.0459C79.6009 29.7272 75.5547 20.0242 68.2033 12.7241C60.8532 5.42472 51.0778 1.40266 40.6623 1.39795C19.2027 1.39795 1.73742 18.7219 1.72856 40.0155" fill="url(#paint0_linear_322_4305)"/>
<path d="M0.338555 40.0027C0.33634 47.0532 2.1927 53.936 5.72189 60.0028L0 80.7322L21.3799 75.1699C27.2707 78.3568 33.9032 80.0371 40.6522 80.0396H40.6696C62.8965 80.0396 80.9905 62.0915 81 40.0347C81.0038 29.3452 76.812 19.2934 69.198 11.7318C61.5831 4.17119 51.4581 0.00439535 40.6696 0C18.4389 0 0.34773 17.9456 0.338871 40.0027H0.338555ZM13.0707 58.958L12.2724 57.7006C8.91664 52.4061 7.1454 46.2877 7.14793 40.0052C7.15521 21.6719 22.1921 6.75628 40.6823 6.75628C49.6365 6.76005 58.0517 10.2236 64.3811 16.5077C70.7102 22.7924 74.1928 31.1467 74.1906 40.0322C74.1824 58.3655 59.1452 73.283 40.6696 73.283H40.6563C34.6405 73.2799 28.7404 71.6768 23.595 68.6475L22.3706 67.927L9.6833 71.2276L13.0707 58.9576V58.958Z" fill="url(#paint1_linear_322_4305)"/>
<path d="M30.5897 23.2788C29.8347 21.6139 29.0402 21.5803 28.3223 21.5511C27.7344 21.526 27.0624 21.5279 26.391 21.5279C25.7189 21.5279 24.627 21.7787 23.7041 22.7787C22.7801 23.7795 20.1768 26.1982 20.1768 31.1176C20.1768 36.0372 23.7879 40.7914 24.2913 41.4592C24.7953 42.1257 31.2627 52.544 41.5054 56.5519C50.018 59.8826 51.7503 59.2202 53.5978 59.0532C55.4456 58.8868 59.5602 56.6351 60.3996 54.3002C61.2396 51.9657 61.2396 49.9645 60.9878 49.5463C60.7359 49.1297 60.0639 48.8795 59.0561 48.3797C58.048 47.8795 53.0938 45.4605 52.1702 45.1268C51.2463 44.7934 50.5745 44.627 49.9025 45.6282C49.2304 46.6278 47.3007 48.8795 46.7125 49.5463C46.1249 50.2147 45.5367 50.2979 44.5293 49.7978C43.5209 49.2961 40.2755 48.2415 36.4252 44.8355C33.4294 42.1851 31.407 38.9121 30.8191 37.9109C30.2312 36.9113 30.7561 36.3694 31.2614 35.8711C31.7142 35.4231 32.2695 34.7036 32.7738 34.1199C33.2763 33.536 33.444 33.1193 33.78 32.4525C34.1164 31.785 33.948 31.2011 33.6965 30.701C33.444 30.2008 31.4857 25.2557 30.5897 23.2788Z" fill="white"/>
</g>
<defs>
<linearGradient id="paint0_linear_322_4305" x1="40.4996" y1="79.3353" x2="40.4996" y2="1.39795" gradientUnits="userSpaceOnUse">
<stop stop-color="#1FAF38"/>
<stop offset="1" stop-color="#60D669"/>
</linearGradient>
<linearGradient id="paint1_linear_322_4305" x1="40.5" y1="80.7322" x2="40.5" y2="0" gradientUnits="userSpaceOnUse">
<stop stop-color="#F9F9F9"/>
<stop offset="1" stop-color="white"/>
</linearGradient>
<clipPath id="clip0_322_4305">
<rect width="81" height="81" fill="white"/>
</clipPath>
</defs>
</svg>
